# xmcd
#
# Track frame offsets:
#	150
#	16501
#	52275
#	71472
#	94397
#	128123
#	143441
#	160653
#	197774
#	219937
#
# Disc length: 3504 seconds
#
# Revision: 0
# Processed by: cddbd v1.5.2PL0 Copyright (c) Steve Scherf et al.
# Submitted via: dBpowerAMP V4.0
#
DISCID=830dae0a
DTITLE=Rosebudd - Every Day
DYEAR=2009
DGENRE=Blues
TTITLE0=Every Day
TTITLE1=I Will Fly On
TTITLE2=Mes Jours Passés
TTITLE3=Heroinomania
TTITLE4=Blood Brother
TTITLE5=Lou's Tears
TTITLE6=Sans la Moindre Chance
TTITLE7=Illusion
TTITLE8=Le Blues du Voyageur
TTITLE9=Welcome to Mexico
EXTD=
EXTT0=
EXTT1=
EXTT2=
EXTT3=
EXTT4=
EXTT5=
EXTT6=
EXTT7=
EXTT8=
EXTT9=
PLAYORDER=
